<?xml version="1.0" standalone="no"?>
<!DOCTYPE svg PUBLIC "-//W3C//DTD SVG 20010904//EN"
 "http://www.w3.org/TR/2001/REC-SVG-20010904/DTD/svg10.dtd">
<svg version="1.0" xmlns="http://www.w3.org/2000/svg"
 width="200.000000pt" height="200.000000pt" viewBox="0 0 200.000000 200.000000"
 preserveAspectRatio="xMidYMid meet">
<metadata>
Created by potrace 1.11, written by Peter Selinger 2001-2013
</metadata>
<g transform="translate(0.000000,200.000000) scale(0.100000,-0.100000)"
fill="#000000" stroke="none">
<path d="M120 995 l0 -885 885 0 885 0 0 885 0 885 -885 0 -885 0 0 -885z
m1680 0 l0 -805 -797 2 -798 3 -3 803 -2 802 800 0 800 0 0 -805z"/>
<path d="M482 1393 l3 -228 45 0 45 0 5 70 5 70 65 7 c70 8 102 26 138 78 43
64 17 167 -53 209 -31 18 -52 21 -146 21 l-109 0 2 -227z m208 117 c46 -46 13
-100 -62 -100 l-48 0 0 53 c0 30 3 57 7 60 15 15 83 7 103 -13z"/>
</g>
</svg>
